<svg version="1.1" id="svg2" xmlns:svg="http://www.w3.org/2000/svg" xmlns:rdf="http://www.w3.org/1999/02/22-rdf-syntax-ns#" xmlns:cc="http://creativecommons.org/ns#" xmlns:dc="http://purl.org/dc/elements/1.1/" xmlns="http://www.w3.org/2000/svg" xmlns:xlink="http://www.w3.org/1999/xlink" x="0px" y="0px" viewBox="9.5 -24.5 138.1 159.4" style="enable-background:new 9.5 -24.5 138.1 159.4;" xml:space="preserve">
 <style type="text/css">
  .st0{fill:#FFFFFF;}
 </style>
 <g id="g10_1_" transform="matrix(1.3333333,0,0,-1.3333333,0,153.6)">
  <g id="g12_1_" transform="scale(0.1)">
   <g id="path14_1_">
    <path class="st0" d="M589,140.4L71.2,439.2v597.6L589,1335.6l517.8-298.8V439.2L589,140.4z M108.7,460.8L589,183.7l480.3,277.2
				v554.3L589,1292.3l-480.2-277.2V460.8z">
    </path>
   </g>
  </g>
  <polygon class="st0" points="78.6,38.7 71.5,38.7 63,46.5 63,50.5 71.8,58.9 71.8,72.2 83.3,79.7 96.4,69.8 	">
  </polygon>
  <polygon class="st0" points="58.8,59.7 49.2,59.7 50.5,72.2 46.2,83.4 71.6,83.4 67.4,72.2 68.6,59.7 	">
  </polygon>
  <polygon class="st0" points="55,46.5 46.5,38.6 39.3,38.6 21.4,69.8 34.6,79.6 46.2,72.2 46.2,58.9 55,50.5 	">
  </polygon>
  <polygon class="st0" points="39.2,106.5 78.5,106.5 83.2,86.5 34.6,86.5 	">
  </polygon>
 </g>
</svg>